<?xml version="1.0" encoding="UTF-8" standalone="no"?>
<svg
   xmlns:dc="http://purl.org/dc/elements/1.1/"
   xmlns:cc="http://creativecommons.org/ns#"
   xmlns:rdf="http://www.w3.org/1999/02/22-rdf-syntax-ns#"
   xmlns:svg="http://www.w3.org/2000/svg"
   xmlns="http://www.w3.org/2000/svg"
   viewBox="0 0 1066.6667 666.66669"
   height="666.66669"
   width="1066.6667"
   xml:space="preserve"
   id="svg2"
   version="1.1"><metadata
     id="metadata8"><rdf:RDF><cc:Work
         rdf:about=""><dc:format>image/svg+xml</dc:format><dc:type
           rdf:resource="http://purl.org/dc/dcmitype/StillImage" /></cc:Work></rdf:RDF></metadata><defs
     id="defs6" /><g
     transform="matrix(1.3333333,0,0,-1.3333333,0,666.66667)"
     id="g10"><g
       transform="scale(0.1)"
       id="g12"><path
         id="path14"
         style="fill:#ffffff;fill-opacity:1;fill-rule:nonzero;stroke:none"
         d="M 8000,0 H 0 V 5000 H 8000 V 0" /><path
         id="path16"
         style="fill:#d3edee;fill-opacity:1;fill-rule:nonzero;stroke:none"
         d="m 3931.5,1445.34 c 0,0 1304.15,-266.57 1306.72,-2.14 1.64,169.47 -262.59,80.02 -262.08,199.95 0.52,119.95 650.36,7.56 613.67,371.8 -36.68,364.24 -1736.09,-382.68 -1736.09,-382.68 l 77.78,-186.93" /><path
         id="path18"
         style="fill:#d3edee;fill-opacity:1;fill-rule:nonzero;stroke:none"
         d="m 1981.46,1528.16 c 0,0 -1294.409,-316.28 -1305.808,-52.12 -7.297,169.29 259.746,90.01 255.231,209.86 -4.512,119.84 -650.195,-17.33 -625.692,348.08 24.497,365.4 1747.769,-316.04 1747.769,-316.04 l -71.5,-189.78" /><path
         id="path20"
         style="fill:#ffffff;fill-opacity:1;fill-rule:nonzero;stroke:none"
         d="M 5618.6,3102.31 C 4744.36,1175.37 3872.64,1275.62 3413.36,1526.27 c -238.83,130.33 -368.62,416.63 -316.45,698.05 100.33,541.16 566.31,1335.89 2521.69,877.99" /><path
         id="path22"
         style="fill:#6acef0;fill-opacity:1;fill-rule:nonzero;stroke:none"
         d="m 4576.17,3235.02 c -423.07,0 -762.05,-88.14 -1013.31,-264.2 -307.32,-215.36 -420.9,-525.26 -462.07,-747.32 -51.74,-279.06 77.54,-564.22 314.37,-693.46 188.44,-102.85 486.21,-199.2 834.48,-74.2 488.62,175.38 947.26,728.34 1363.21,1643.49 -387.66,90.48 -733.77,135.69 -1036.68,135.69 z M 3914.56,1387.71 c -44.02,0 -88.02,3.03 -131.93,9.15 -125.39,17.43 -250.24,59.7 -371.07,125.64 -239.96,130.96 -370.95,419.89 -318.53,702.64 26.39,142.37 72.64,273.47 137.47,389.65 80.99,145.17 191.35,267.33 328.02,363.11 433.77,303.96 1127.18,347.21 2060.92,128.55 l 4.92,-1.15 -2.2,-4.84 c -417.48,-920.18 -878.42,-1476.2 -1370,-1652.65 -111.48,-40.01 -224.57,-60.1 -337.6,-60.1" /><path
         id="path24"
         style="fill:#ffffff;fill-opacity:1;fill-rule:nonzero;stroke:none"
         d="M 5618.6,3102.31 3225.3,1859.8 5618.6,3102.31" /><path
         id="path26"
         style="fill:#6acef0;fill-opacity:1;fill-rule:nonzero;stroke:none"
         d="m 3227.03,1856 -3.46,7.61 2393.31,1242.51 3.45,-7.61 L 3227.03,1856" /><path
         id="path28"
         style="fill:#ffffff;fill-opacity:1;fill-rule:nonzero;stroke:none"
         d="M 3924.26,3149.83 3518.47,2012 3924.26,3149.83" /><path
         id="path30"
         style="fill:#6acef0;fill-opacity:1;fill-rule:nonzero;stroke:none"
         d="m 3522.16,2010.49 -7.39,3.03 405.79,1137.81 7.39,-3.01 -405.79,-1137.83" /><path
         id="path32"
         style="fill:#ffffff;fill-opacity:1;fill-rule:nonzero;stroke:none"
         d="M 3603.75,2056.28 4654.63,1688.2 3603.75,2056.28" /><path
         id="path34"
         style="fill:#6acef0;fill-opacity:1;fill-rule:nonzero;stroke:none"
         d="m 4653.4,1684.18 -1050.88,368.08 2.46,8.04 1050.88,-368.07 -2.46,-8.05" /><path
         id="path36"
         style="fill:#ffffff;fill-opacity:1;fill-rule:nonzero;stroke:none"
         d="m 4474.15,3237.22 -289.39,-879.31 289.39,879.31" /><path
         id="path38"
         style="fill:#6acef0;fill-opacity:1;fill-rule:nonzero;stroke:none"
         d="m 4188.49,2356.5 -7.47,2.83 289.4,879.3 7.46,-2.81 -289.39,-879.32" /><path
         id="path40"
         style="fill:#ffffff;fill-opacity:1;fill-rule:nonzero;stroke:none"
         d="m 4328.67,2432.64 681.31,-374.8 -681.31,374.8" /><path
         id="path42"
         style="fill:#6acef0;fill-opacity:1;fill-rule:nonzero;stroke:none"
         d="m 5008.17,2054.07 -681.3,374.8 3.61,7.53 681.31,-374.8 -3.62,-7.53" /><path
         id="path44"
         style="fill:#ffffff;fill-opacity:1;fill-rule:nonzero;stroke:none"
         d="m 4808.4,2681.69 256.34,523.35 -256.34,-523.35" /><path
         id="path46"
         style="fill:#6acef0;fill-opacity:1;fill-rule:nonzero;stroke:none"
         d="m 4811.9,2679.72 -7.01,3.93 256.35,523.36 7,-3.93 -256.34,-523.36" /><path
         id="path48"
         style="fill:#ffffff;fill-opacity:1;fill-rule:nonzero;stroke:none"
         d="m 4867.03,2712.13 472.58,-159.21 -472.58,159.21" /><path
         id="path50"
         style="fill:#6acef0;fill-opacity:1;fill-rule:nonzero;stroke:none"
         d="m 5338.42,2548.89 -472.57,159.2 2.37,8.08 472.57,-159.21 -2.37,-8.07" /><path
         id="path52"
         style="fill:#ffffff;fill-opacity:1;fill-rule:nonzero;stroke:none"
         d="m 1077.71,4463.67 c 2057.66,-629.02 2120.12,-1629.85 1958.38,-2193.71 -84.1,-293.22 -341.83,-492.39 -628.38,-485.61 -551.03,13.03 -1419.159,391.25 -1330,2679.32" /><path
         id="path54"
         style="fill:#6acef0;fill-opacity:1;fill-rule:nonzero;stroke:none"
         d="m 1081.46,4458.12 c -41.71,-1087.35 128.32,-1856.76 505.4,-2286.89 268.77,-306.57 594.78,-377.3 820.94,-382.66 4.67,-0.1 9.36,-0.16 14.01,-0.16 278.67,-0.01 528.44,196.69 610.5,482.79 66.39,231.43 106.18,584.85 -81.24,954.29 -262.95,518.33 -891.97,933.04 -1869.61,1232.63 z M 2421.81,1779.95 c -4.73,0 -9.44,0.05 -14.18,0.17 -144.94,3.42 -282.45,31.31 -408.73,82.87 -157.77,64.41 -298.33,166.17 -417.81,302.45 -379.21,432.55 -549.9,1205.85 -507.33,2298.4 l 0.21,5.37 4.83,-1.47 c 982.53,-300.36 1614.78,-716.95 1879.22,-1238.21 83.31,-164.22 129.37,-339.02 136.89,-519.54 6.02,-144.5 -12.49,-292.97 -55.03,-441.27 -83.08,-289.64 -335.96,-488.77 -618.07,-488.77" /><path
         id="path56"
         style="fill:#ffffff;fill-opacity:1;fill-rule:nonzero;stroke:none"
         d="M 1077.71,4463.67 2742.66,1996.4 1077.71,4463.67" /><path
         id="path58"
         style="fill:#6acef0;fill-opacity:1;fill-rule:nonzero;stroke:none"
         d="m 2739.45,1993.92 -1664.94,2467.27 6.41,4.96 1664.95,-2467.28 -6.42,-4.95" /><path
         id="path60"
         style="fill:#ffffff;fill-opacity:1;fill-rule:nonzero;stroke:none"
         d="M 1344.12,2545.6 2538.71,2298.62 1344.12,2545.6" /><path
         id="path62"
         style="fill:#6acef0;fill-opacity:1;fill-rule:nonzero;stroke:none"
         d="m 2537.96,2294.46 -1194.59,246.98 1.5,8.32 1194.59,-246.98 -1.5,-8.32" /><path
         id="path64"
         style="fill:#ffffff;fill-opacity:1;fill-rule:nonzero;stroke:none"
         d="M 2479.38,2386.54 2647.34,3638.76 2479.38,2386.54" /><path
         id="path66"
         style="fill:#6acef0;fill-opacity:1;fill-rule:nonzero;stroke:none"
         d="m 2483.3,2385.94 -7.84,1.21 167.96,1252.22 7.83,-1.21 -167.95,-1252.22" /><path
         id="path68"
         style="fill:#ffffff;fill-opacity:1;fill-rule:nonzero;stroke:none"
         d="m 1156.49,3149.1 918.71,-163.6 -918.71,163.6" /><path
         id="path70"
         style="fill:#6acef0;fill-opacity:1;fill-rule:nonzero;stroke:none"
         d="m 2074.55,2981.33 -918.71,163.59 1.3,8.35 918.7,-163.59 -1.29,-8.35" /><path
         id="path72"
         style="fill:#ffffff;fill-opacity:1;fill-rule:nonzero;stroke:none"
         d="m 1975.08,3133.87 242.86,837.01 -242.86,-837.01" /><path
         id="path74"
         style="fill:#6acef0;fill-opacity:1;fill-rule:nonzero;stroke:none"
         d="m 1978.86,3132.61 -7.56,2.51 242.87,837.01 7.55,-2.51 -242.86,-837.01" /><path
         id="path76"
         style="fill:#ffffff;fill-opacity:1;fill-rule:nonzero;stroke:none"
         d="M 1641.35,3628.42 1079,3820.55 1641.35,3628.42" /><path
         id="path78"
         style="fill:#6acef0;fill-opacity:1;fill-rule:nonzero;stroke:none"
         d="m 1640.14,3624.38 -562.34,192.14 2.41,8.06 562.34,-192.13 -2.41,-8.07" /><path
         id="path80"
         style="fill:#ffffff;fill-opacity:1;fill-rule:nonzero;stroke:none"
         d="m 1600.56,3688.87 69.31,561.95 -69.31,-561.95" /><path
         id="path82"
         style="fill:#6acef0;fill-opacity:1;fill-rule:nonzero;stroke:none"
         d="m 1604.48,3688.32 -7.84,1.1 69.31,561.95 7.84,-1.1 -69.31,-561.95" /><path
         id="path84"
         style="fill:#ffffff;fill-opacity:1;fill-rule:nonzero;stroke:none"
         d="m 2371.76,1875.41 c -142.2,67.72 -222.25,130.34 -309.4,257.47 -189.11,275.84 -17.17,427.58 80.11,478.62 209.3,109.81 -220.11,370.81 -7.94,624.59 166.49,199.14 381.23,93.53 484.44,202.9 149.59,158.51 -29.63,302.94 33.98,467.47 132.61,342.99 368.43,57.52 462.65,298.7 94.22,241.17 259.51,521.54 411.86,448.97 152.35,-72.56 68.33,-391.63 -36.05,-627.97 -104.38,-236.34 176.8,-204.29 102.27,-567.78 -52.54,-256.25 -352.87,-184.71 -362.81,-409.74 -6.85,-155.27 271.21,-185.48 244.37,-451.14 -34.19,-338.54 -502.8,-171.82 -438.96,-411.72 29.68,-111.52 39.41,-349.78 -278.67,-384.05 -146.6,-15.79 -243.65,5.95 -385.85,73.68" /><path
         id="path86"
         style="fill:#6acef0;fill-opacity:1;fill-rule:nonzero;stroke:none"
         d="m 3477.07,4661.51 c -16.65,0 -33.73,-3.7 -51.14,-11.1 -146.96,-62.45 -271.89,-357.84 -306.68,-446.88 -43.99,-112.58 -118.64,-113.05 -197.69,-113.53 -95.29,-0.59 -193.83,-1.2 -264.95,-185.16 -26.66,-68.96 -9.54,-135.48 7.02,-199.81 22.34,-86.78 45.44,-176.52 -41.87,-269.04 -44.73,-47.4 -108.12,-55.09 -181.53,-63.99 -97.42,-11.81 -207.84,-25.2 -302.75,-138.73 -110.84,-132.58 -44.73,-265.05 13.6,-381.91 35.27,-70.68 65.74,-131.71 50.66,-181.71 -7.66,-25.39 -26.48,-45.66 -57.53,-61.95 -38.76,-20.34 -131.63,-79.4 -156.63,-188.28 -19.44,-84.64 6.79,-180.21 77.97,-284.03 83.33,-121.56 161.01,-186.19 307.82,-256.12 146.8,-69.92 243.68,-88.42 383.84,-73.32 119.72,12.89 203.62,55.99 249.39,128.11 58.85,92.76 37.71,206.13 25.89,250.56 -9.48,35.59 -8,64.11 4.5,87.2 24.62,45.45 87.39,62.08 160.06,81.34 120.18,31.84 256.4,67.93 274.26,244.8 15.14,149.83 -68.16,223.61 -141.63,288.7 -54.4,48.18 -105.77,93.69 -102.75,162.18 5.02,113.86 82.75,153.48 165.04,195.44 84.42,43.04 171.71,87.55 197.85,215.01 38.76,189.03 -18.41,268.25 -68.85,338.15 -44.92,62.25 -83.71,116.01 -33.14,230.53 38.54,87.26 160.01,384.29 105,542.94 -13.07,37.72 -35.6,64.41 -66.98,79.36 -15.73,7.49 -32.04,11.24 -48.78,11.24 z M 2672.53,1792.56 c -100.23,0 -185.7,23.4 -302.37,78.98 -148.25,70.61 -226.73,135.92 -310.99,258.84 -72.63,105.94 -99.3,203.87 -79.27,291.07 25.8,112.34 121.07,172.99 160.83,193.85 29.02,15.23 46.52,33.86 53.48,56.95 14.05,46.58 -15.68,106.14 -50.11,175.12 -56.6,113.41 -127.05,254.55 -12.52,391.54 96.93,115.94 208.93,129.52 307.76,141.51 71.94,8.72 134.07,16.25 176.85,61.58 84.02,89.04 62.55,172.46 39.82,260.78 -16.92,65.71 -34.41,133.66 -6.71,205.3 73.13,189.15 178.9,189.81 272.22,190.38 79.67,0.5 148.47,0.92 190.43,108.33 35.09,89.82 161.23,387.82 311.06,451.49 36.99,15.72 72.66,15.63 106.06,-0.28 33.39,-15.91 57.34,-44.21 71.18,-84.14 56.08,-161.75 -66.39,-461.49 -105.26,-549.51 -48.52,-109.83 -12.88,-159.21 32.24,-221.73 48.95,-67.84 109.87,-152.25 70.32,-345.14 -26.97,-131.51 -120.05,-178.97 -202.17,-220.84 -80.1,-40.84 -155.75,-79.41 -160.55,-188.2 -2.84,-64.26 44.77,-106.43 99.89,-155.26 75.02,-66.45 160.05,-141.77 144.46,-296.14 -18.46,-182.74 -163.6,-221.2 -280.22,-252.1 -70.93,-18.8 -132.19,-35.03 -155.13,-77.37 -11.37,-21 -12.59,-47.36 -3.74,-80.64 12.13,-45.57 33.78,-161.92 -26.95,-257.62 -47.13,-74.29 -132.97,-118.63 -255.13,-131.79 -30.18,-3.25 -58.37,-4.96 -85.48,-4.96" /><path
         id="path88"
         style="fill:#ffffff;fill-opacity:1;fill-rule:nonzero;stroke:none"
         d="M 2382.2,1870.28 3527.46,4654.13 2382.2,1870.28" /><path
         id="path90"
         style="fill:#6acef0;fill-opacity:1;fill-rule:nonzero;stroke:none"
         d="m 2385.83,1868.57 -7.25,3.41 1145.26,2783.86 7.24,-3.41 -1145.25,-2783.86" /><path
         id="path92"
         style="fill:#ffffff;fill-opacity:1;fill-rule:nonzero;stroke:none"
         d="m 2088.85,2576.85 453.92,-310.53 -453.92,310.53" /><path
         id="path94"
         style="fill:#6acef0;fill-opacity:1;fill-rule:nonzero;stroke:none"
         d="m 2540.64,2262.75 -453.92,310.54 4.26,7.13 453.92,-310.54 -4.26,-7.13" /><path
         id="path96"
         style="fill:#ffffff;fill-opacity:1;fill-rule:nonzero;stroke:none"
         d="m 2276.8,3340.97 394.45,-768.08 -394.45,768.08" /><path
         id="path98"
         style="fill:#6acef0;fill-opacity:1;fill-rule:nonzero;stroke:none"
         d="m 2667.78,2570.84 -394.45,768.1 6.94,4.07 394.45,-768.09 -6.94,-4.08" /><path
         id="path100"
         style="fill:#ffffff;fill-opacity:1;fill-rule:nonzero;stroke:none"
         d="m 2612.45,3432.53 284.66,-308.61 -284.66,308.61" /><path
         id="path102"
         style="fill:#6acef0;fill-opacity:1;fill-rule:nonzero;stroke:none"
         d="m 2894.3,3120.95 -284.67,308.61 5.63,5.94 284.67,-308.61 -5.63,-5.94" /><path
         id="path104"
         style="fill:#ffffff;fill-opacity:1;fill-rule:nonzero;stroke:none"
         d="m 2734.71,4038.77 302.51,-575.31 -302.51,575.31" /><path
         id="path106"
         style="fill:#6acef0;fill-opacity:1;fill-rule:nonzero;stroke:none"
         d="m 3033.77,3461.38 -302.5,575.31 6.89,4.15 302.5,-575.3 -6.89,-4.16" /><path
         id="path108"
         style="fill:#ffffff;fill-opacity:1;fill-rule:nonzero;stroke:none"
         d="m 3362.44,4614.13 -37.8,-453 37.8,453" /><path
         id="path110"
         style="fill:#6acef0;fill-opacity:1;fill-rule:nonzero;stroke:none"
         d="m 3328.58,4160.75 -7.88,0.75 37.8,453 7.88,-0.75 -37.8,-453" /><path
         id="path112"
         style="fill:#ffffff;fill-opacity:1;fill-rule:nonzero;stroke:none"
         d="m 3065.64,4129.27 147.34,-238.29 -147.34,238.29" /><path
         id="path114"
         style="fill:#6acef0;fill-opacity:1;fill-rule:nonzero;stroke:none"
         d="m 3209.68,3888.64 -147.34,238.29 6.61,4.68 147.33,-238.29 -6.6,-4.68" /><path
         id="path116"
         style="fill:#ffffff;fill-opacity:1;fill-rule:nonzero;stroke:none"
         d="m 2482.28,2111.87 563.48,27.54 -563.48,-27.54" /><path
         id="path118"
         style="fill:#6acef0;fill-opacity:1;fill-rule:nonzero;stroke:none"
         d="m 2482.46,2107.64 -0.37,8.45 563.49,27.55 0.36,-8.45 -563.48,-27.55" /><path
         id="path120"
         style="fill:#ffffff;fill-opacity:1;fill-rule:nonzero;stroke:none"
         d="m 2621.86,2453.16 797.57,4.46 -797.57,-4.46" /><path
         id="path122"
         style="fill:#6acef0;fill-opacity:1;fill-rule:nonzero;stroke:none"
         d="m 2621.88,2448.93 -0.04,8.46 797.57,4.46 0.04,-8.47 -797.57,-4.45" /><path
         id="path124"
         style="fill:#ffffff;fill-opacity:1;fill-rule:nonzero;stroke:none"
         d="m 2755.48,2778.85 659.97,19.22 -659.97,-19.22" /><path
         id="path126"
         style="fill:#6acef0;fill-opacity:1;fill-rule:nonzero;stroke:none"
         d="m 2755.59,2774.61 -0.22,8.47 659.98,19.22 0.21,-8.46 -659.97,-19.23" /><path
         id="path128"
         style="fill:#ffffff;fill-opacity:1;fill-rule:nonzero;stroke:none"
         d="m 2853.26,3012.43 387.37,91.47 -387.37,-91.47" /><path
         id="path130"
         style="fill:#6acef0;fill-opacity:1;fill-rule:nonzero;stroke:none"
         d="m 2854.11,3008.3 -1.7,8.27 387.37,91.46 1.71,-8.26 -387.38,-91.47" /><path
         id="path132"
         style="fill:#ffffff;fill-opacity:1;fill-rule:nonzero;stroke:none"
         d="m 2988.5,3343.63 588.13,59.33 -588.13,-59.33" /><path
         id="path134"
         style="fill:#6acef0;fill-opacity:1;fill-rule:nonzero;stroke:none"
         d="m 2988.87,3339.41 -0.74,8.44 588.13,59.33 0.74,-8.43 -588.13,-59.34" /><path
         id="path136"
         style="fill:#ffffff;fill-opacity:1;fill-rule:nonzero;stroke:none"
         d="m 3077.76,3558.26 490.96,173.16 -490.96,-173.16" /><path
         id="path138"
         style="fill:#6acef0;fill-opacity:1;fill-rule:nonzero;stroke:none"
         d="m 3079,3554.24 -2.47,8.04 490.96,173.15 2.47,-8.03 L 3079,3554.24" /><path
         id="path140"
         style="fill:#ffffff;fill-opacity:1;fill-rule:nonzero;stroke:none"
         d="m 3247.94,3973.99 290.09,167.79 -290.09,-167.79" /><path
         id="path142"
         style="fill:#6acef0;fill-opacity:1;fill-rule:nonzero;stroke:none"
         d="m 3249.82,3970.27 -3.76,7.44 290.1,167.79 3.75,-7.45 -290.09,-167.78" /><path
         id="path144"
         style="fill:#ffffff;fill-opacity:1;fill-rule:nonzero;stroke:none"
         d="m 3361.32,4250.28 249.11,209.03 -249.11,-209.03" /><path
         id="path146"
         style="fill:#6acef0;fill-opacity:1;fill-rule:nonzero;stroke:none"
         d="m 3363.76,4246.94 -4.88,6.67 249.11,209.03 4.88,-6.66 -249.11,-209.04" /><path
         id="path148"
         style="fill:#b2ebf3;fill-opacity:1;fill-rule:nonzero;stroke:none"
         d="m 2614.77,2879.53 c 0,0 150.94,21.67 208.21,112.48 57.27,90.81 49.4,188.69 -25.93,146.13 -143.13,-80.86 -182.28,-258.61 -182.28,-258.61" /><path
         id="path150"
         style="fill:#b2ebf3;fill-opacity:1;fill-rule:nonzero;stroke:none"
         d="m 2614.77,2879.53 c 0,0 -150.48,25.12 -205.92,117.23 -55.43,92.11 -45.6,189.78 28.85,145.51 141.48,-84.14 177.07,-262.74 177.07,-262.74" /><path
         id="path152"
         style="fill:#b2ebf3;fill-opacity:1;fill-rule:nonzero;stroke:none"
         d="m 2631.23,3301.12 c 0,0 131.21,82.76 150.99,190.25 19.78,107.49 -23.02,194.4 -76.97,123.86 -102.51,-134.05 -74.02,-314.11 -74.02,-314.11" /><path
         id="path154"
         style="fill:#b2ebf3;fill-opacity:1;fill-rule:nonzero;stroke:none"
         d="m 2631.23,3301.12 c 0,0 -147.78,-39.44 -232.3,22.37 -84.53,61.81 -110.96,155.89 -26.27,146.07 160.91,-18.68 258.57,-168.44 258.57,-168.44" /><path
         id="path156"
         style="fill:#b2ebf3;fill-opacity:1;fill-rule:nonzero;stroke:none"
         d="m 2533.86,3569.4 c 0,0 131.93,63.14 161.23,162.27 29.31,99.11 -2.44,185.93 -60.3,125.53 -109.95,-114.78 -100.93,-287.8 -100.93,-287.8" /><path
         id="path158"
         style="fill:#b2ebf3;fill-opacity:1;fill-rule:nonzero;stroke:none"
         d="m 2534.07,3569.51 c 0,0 -132.21,-35.28 -207.83,20.01 -75.62,55.3 -99.27,139.47 -23.51,130.68 143.97,-16.7 231.34,-150.69 231.34,-150.69" /><path
         id="path160"
         style="fill:#b2ebf3;fill-opacity:1;fill-rule:nonzero;stroke:none"
         d="m 2429.23,3814.24 c 0,0 137.49,47.65 176.56,142.84 39.06,95.19 16.19,185.15 -47.39,131.73 -120.81,-101.5 -129.17,-274.57 -129.17,-274.57" /><path
         id="path162"
         style="fill:#b2ebf3;fill-opacity:1;fill-rule:nonzero;stroke:none"
         d="m 2429.45,3814.34 c 0,0 -134.98,-19.93 -204.63,43.73 -69.65,63.64 -84.73,150.04 -10.28,132.61 141.46,-33.11 214.91,-176.34 214.91,-176.34" /><path
         id="path164"
         style="fill:#b2ebf3;fill-opacity:1;fill-rule:nonzero;stroke:none"
         d="m 2391.68,4100.36 c 0,0 110.86,2.09 159.4,62.61 48.55,60.52 50.55,132.01 -7.27,108.01 -109.85,-45.61 -152.13,-170.62 -152.13,-170.62" /><path
         id="path166"
         style="fill:#b2ebf3;fill-opacity:1;fill-rule:nonzero;stroke:none"
         d="m 2392.42,4100.28 c 0,0 -114.32,18.72 -155.92,87.84 -41.61,69.11 -33.53,142.48 22.84,109.3 107.12,-63.04 133.08,-197.14 133.08,-197.14" /><path
         id="path168"
         style="fill:#b2ebf3;fill-opacity:1;fill-rule:nonzero;stroke:none"
         d="m 2441.72,4351.73 c 0,0 80.45,36.49 99.27,96.04 18.82,59.53 0.6,112.42 -35.06,76.65 -67.74,-67.98 -64.21,-172.69 -64.21,-172.69" /><path
         id="path170"
         style="fill:#b2ebf3;fill-opacity:1;fill-rule:nonzero;stroke:none"
         d="m 2394.8,4499.39 c 0,0 19.3,60.76 9.55,106.59 -12.08,56.81 -67.7,60.83 -69.48,-6.1 -1.97,-74.28 59.93,-100.49 59.93,-100.49" /><path
         id="path172"
         style="fill:#b2ebf3;fill-opacity:1;fill-rule:nonzero;stroke:none"
         d="m 2442.93,4352.17 c 0,0 -80.63,-20.32 -125.55,13.66 -44.93,33.99 -57.93,85.04 -12.18,79.15 86.92,-11.18 137.73,-92.81 137.73,-92.81" /><path
         id="path174"
         style="fill:#b2ebf3;fill-opacity:1;fill-rule:nonzero;stroke:none"
         d="m 2387.9,2236.45 -6.46,4.05 c 1.07,1.95 107.92,198.11 183.05,451.21 69.23,233.16 124.92,563.74 -2.8,814.43 -230.79,452.97 -190.16,562.28 -154.32,658.72 2.83,7.59 5.61,15.08 8.21,22.64 37.57,109.2 27.49,237.67 -24.53,312.41 l 6.01,4.79 c 53.44,-76.79 63.94,-208.37 25.55,-319.97 -2.62,-7.62 -5.43,-15.18 -8.28,-22.83 -35.23,-94.81 -75.17,-202.26 153.93,-651.93 129.02,-253.21 73.02,-586.14 3.33,-820.84 -75.4,-253.92 -182.62,-450.73 -183.69,-452.68" /><path
         id="path176"
         style="fill:#b2ebf3;fill-opacity:1;fill-rule:nonzero;stroke:none"
         d="m 5060.43,4290.36 c 0,0 -1250.89,88.43 -1787.32,-543.86 -350.01,-412.55 -399.51,-985.59 -50,-1364.56 218.2,-236.59 836.46,-368.27 1210.26,134.61 393.88,529.9 40.46,997.33 627.06,1773.81" /><path
         id="path178"
         style="fill:#ffffff;fill-opacity:1;fill-rule:nonzero;stroke:none"
         d="m 3301.64,2309.18 c -0.08,0 -0.16,0 -0.24,0.01 -2.18,0.14 -3.85,2.15 -3.71,4.48 18.69,332.87 122.99,644.18 310.02,925.28 149.55,224.76 352.01,430.79 601.75,612.37 425.09,309.07 845.68,441.81 849.87,443.11 2.14,0.65 4.29,-0.64 4.9,-2.89 0.61,-2.24 -0.6,-4.59 -2.7,-5.24 -4.19,-1.3 -423.74,-133.74 -847.8,-442.11 -391.03,-284.35 -866.02,-780.8 -908.14,-1531.03 -0.13,-2.24 -1.87,-3.98 -3.95,-3.98" /><path
         id="path180"
         style="fill:#ffffff;fill-opacity:1;fill-rule:nonzero;stroke:none"
         d="m 4292.91,3900.64 c -1.92,0 -3.6,1.5 -3.91,3.6 -0.29,2.06 -28.26,207.35 42.95,348.26 1.05,2.06 3.42,2.83 5.36,1.71 1.93,-1.11 2.64,-3.68 1.61,-5.73 -69.97,-138.45 -42.39,-340.95 -42.09,-342.97 0.32,-2.32 -1.17,-4.47 -3.32,-4.82 -0.2,-0.04 -0.4,-0.05 -0.6,-0.05" /><path
         id="path182"
         style="fill:#ffffff;fill-opacity:1;fill-rule:nonzero;stroke:none"
         d="m 4763.45,3735.31 c -0.44,0 -0.88,0.08 -1.32,0.24 -272.35,102.95 -581.28,83.02 -584.37,82.81 -2.22,-0.2 -4.06,1.63 -4.2,3.96 -0.14,2.33 1.52,4.35 3.7,4.49 3.09,0.23 313.58,20.27 587.51,-83.27 2.06,-0.78 3.13,-3.2 2.41,-5.41 -0.58,-1.73 -2.1,-2.82 -3.73,-2.82" /><path
         id="path184"
         style="fill:#ffffff;fill-opacity:1;fill-rule:nonzero;stroke:none"
         d="m 3883.27,3564.72 c -1.5,0 -2.95,0.93 -3.6,2.5 -1.02,2.42 -101.87,245.93 -100.66,532.8 0.01,2.32 1.78,4.21 3.95,4.21 0.01,0 0.01,0 0.02,0 2.19,-0.01 3.95,-1.92 3.94,-4.25 -1.2,-285.05 98.95,-526.88 99.96,-529.3 0.89,-2.13 0,-4.64 -1.98,-5.59 -0.53,-0.25 -1.09,-0.37 -1.63,-0.37" /><path
         id="path186"
         style="fill:#ffffff;fill-opacity:1;fill-rule:nonzero;stroke:none"
         d="m 4666.63,3238.88 c -0.6,0 -1.22,0.15 -1.81,0.47 -480.65,265.06 -879.88,217.34 -883.86,216.83 -2.12,-0.29 -4.13,1.37 -4.4,3.7 -0.27,2.32 1.28,4.43 3.45,4.7 3.99,0.52 405.49,48.62 888.44,-217.71 1.94,-1.07 2.7,-3.62 1.71,-5.7 -0.71,-1.46 -2.09,-2.29 -3.53,-2.29" /><path
         id="path188"
         style="fill:#ffffff;fill-opacity:1;fill-rule:nonzero;stroke:none"
         d="m 3557.61,3147.54 c -1.22,0 -2.41,0.59 -3.19,1.72 -2.29,3.32 -229.14,336.15 -234.91,652.57 -0.04,2.34 1.7,4.27 3.88,4.31 2.13,0.24 3.99,-1.81 4.03,-4.14 5.72,-313.7 231.09,-644.41 233.37,-647.72 1.29,-1.88 0.92,-4.52 -0.84,-5.91 -0.7,-0.56 -1.53,-0.83 -2.34,-0.83" /><path
         id="path190"
         style="fill:#ffffff;fill-opacity:1;fill-rule:nonzero;stroke:none"
         d="m 4543.12,2695.27 c -0.67,0 -1.35,0.18 -1.99,0.57 -465.78,290.21 -1073.23,268.53 -1079.3,268.29 -2.14,-0.16 -4.02,1.73 -4.11,4.07 -0.08,2.33 1.62,4.3 3.8,4.39 1.53,0.07 155.08,5.99 364.34,-24.14 193.18,-27.83 474.78,-92.97 719.26,-245.29 1.88,-1.17 2.53,-3.77 1.42,-5.79 -0.73,-1.34 -2.06,-2.1 -3.42,-2.1" /><path
         id="path192"
         style="fill:#ffffff;fill-opacity:1;fill-rule:nonzero;stroke:none"
         d="m 3372.48,2724.23 c -1.04,0 -2.08,0.44 -2.86,1.31 -2.43,2.72 -244.2,275.96 -335.46,602.73 -0.63,2.24 0.56,4.6 2.65,5.27 2.11,0.67 4.29,-0.61 4.92,-2.85 90.72,-324.77 331.19,-596.59 333.61,-599.3 1.51,-1.69 1.45,-4.37 -0.13,-5.98 -0.77,-0.79 -1.75,-1.18 -2.73,-1.18" /><path
         id="path194"
         style="fill:#ffffff;fill-opacity:1;fill-rule:nonzero;stroke:none"
         d="m 4169.72,2273.53 c -0.81,0 -1.63,0.27 -2.34,0.83 -377.36,296.99 -811.96,371.87 -816.31,372.58 -2.15,0.36 -3.63,2.53 -3.3,4.84 0.34,2.3 2.37,3.86 4.52,3.53 4.36,-0.73 440.81,-75.87 819.78,-374.14 1.76,-1.38 2.14,-4.03 0.84,-5.92 -0.77,-1.12 -1.97,-1.72 -3.19,-1.72" /><path
         id="path196"
         style="fill:#b2ebf3;fill-opacity:1;fill-rule:nonzero;stroke:none"
         d="m 147.383,3233.46 c 0,0 1320.057,388.78 2144.527,-129.83 537.95,-338.38 812.45,-912.54 580.18,-1383.42 -145,-293.98 -763.54,-576.1 -1362.06,-151.02 -630.671,447.9 -428.28,1010.18 -1362.647,1664.27" /><path
         id="path198"
         style="fill:#ffffff;fill-opacity:1;fill-rule:nonzero;stroke:none"
         d="m 166.578,3230.08 c 504.051,-356.96 674.75,-690.28 825.563,-984.71 123.459,-241.04 240.079,-468.72 522.259,-669.13 375.95,-267 720.43,-228.19 892.31,-181.32 207.77,56.68 387.7,185.92 458.39,329.24 110.69,224.41 110.2,478.18 -1.44,733.86 -107.18,245.5 -311.66,472.19 -575.76,638.31 -424.07,266.75 -982.65,287.68 -1376.568,258.27 -372.348,-27.8 -671.66,-104.57 -744.754,-124.52 z M 2151.61,1344.35 c -179.02,0 -406.22,47.52 -645.95,217.78 -285.44,202.72 -402.96,432.17 -527.398,675.11 -151.387,295.55 -322.973,630.55 -835.211,989.13 l -14.672,10.27 16.902,4.98 c 3.309,0.97 335.739,97.79 764.637,129.85 251.992,18.83 487.582,11.98 700.202,-20.38 266.11,-40.5 496.84,-121.3 685.8,-240.16 266.83,-167.84 473.56,-397.18 582.08,-645.74 54.92,-125.8 83.51,-252.86 84.99,-377.64 1.53,-130.4 -26.69,-255.32 -83.9,-371.3 -73.8,-149.62 -253.31,-279.03 -468.46,-337.73 -64.69,-17.65 -153.5,-34.17 -259.02,-34.17" /><path
         id="path200"
         style="fill:#ffffff;fill-opacity:1;fill-rule:nonzero;stroke:none"
         d="m 2813.51,1627.18 c -1.49,0 -2.91,0.89 -3.58,2.41 -335.02,757.54 -1041,1152.1 -1574.25,1349.71 -578.125,214.24 -1083.5,249.6 -1088.539,249.93 -2.184,0.14 -3.84,2.15 -3.707,4.49 0.136,2.33 2.027,4.09 4.195,3.96 5.043,-0.33 511.332,-35.73 1090.451,-250.31 340.21,-126.05 638.66,-288.36 887.06,-482.42 310.65,-242.67 543.45,-535.98 691.94,-871.74 0.93,-2.11 0.09,-4.64 -1.88,-5.63 -0.55,-0.28 -1.13,-0.4 -1.69,-0.4" /><path
         id="path202"
         style="fill:#ffffff;fill-opacity:1;fill-rule:nonzero;stroke:none"
         d="m 1126.87,3018.1 c -1.8,0 -3.43,1.31 -3.86,3.26 -0.47,2.15 -48.76,216.04 -178.065,341.11 -1.621,1.57 -1.746,4.24 -0.281,5.98 1.473,1.74 3.973,1.86 5.586,0.3 131.17,-126.87 179.99,-343.28 180.47,-345.44 0.5,-2.28 -0.82,-4.56 -2.95,-5.1 -0.3,-0.08 -0.61,-0.11 -0.9,-0.11" /><path
         id="path204"
         style="fill:#ffffff;fill-opacity:1;fill-rule:nonzero;stroke:none"
         d="m 681.23,2736.81 c -1.32,0 -2.609,0.71 -3.359,2 -1.152,1.98 -0.586,4.59 1.266,5.83 256.609,171.2 600.383,224.75 603.823,225.27 2.18,0.33 4.17,-1.28 4.48,-3.6 0.3,-2.31 -1.2,-4.45 -3.37,-4.78 -3.43,-0.52 -345.586,-53.83 -600.75,-224.07 -0.648,-0.44 -1.371,-0.65 -2.09,-0.65" /><path
         id="path206"
         style="fill:#ffffff;fill-opacity:1;fill-rule:nonzero;stroke:none"
         d="m 1699.83,2772.3 c -0.09,0 -0.18,0.01 -0.27,0.01 -2.18,0.16 -3.83,2.18 -3.69,4.51 0.17,2.7 15.33,273.94 -95.84,565.07 -0.83,2.17 0.14,4.64 2.17,5.53 2.02,0.88 4.33,-0.16 5.15,-2.32 111.89,-293.02 96.59,-566.12 96.42,-568.84 -0.14,-2.24 -1.88,-3.96 -3.94,-3.96" /><path
         id="path208"
         style="fill:#ffffff;fill-opacity:1;fill-rule:nonzero;stroke:none"
         d="m 977.418,2252.27 c -1.113,0 -2.219,0.49 -3.004,1.46 -1.422,1.77 -1.238,4.44 0.414,5.97 219.542,202.51 446.432,309.86 598.122,364.26 164.42,58.97 278.52,70.19 279.65,70.3 2.18,0.22 4.1,-1.52 4.29,-3.85 0.19,-2.32 -1.42,-4.38 -3.59,-4.58 -4.51,-0.43 -455.16,-46.84 -873.304,-432.54 -0.75,-0.69 -1.668,-1.02 -2.578,-1.02" /><path
         id="path210"
         style="fill:#ffffff;fill-opacity:1;fill-rule:nonzero;stroke:none"
         d="m 2213.2,2423.4 c -0.4,0 -0.81,0.06 -1.22,0.2 -2.07,0.73 -3.21,3.11 -2.54,5.34 1.19,3.91 117.63,395.72 2.9,717.84 -0.78,2.18 0.24,4.63 2.28,5.46 2.04,0.84 4.34,-0.26 5.11,-2.45 115.74,-324.95 -1.56,-719.53 -2.76,-723.47 -0.55,-1.79 -2.1,-2.92 -3.77,-2.92" /><path
         id="path212"
         style="fill:#ffffff;fill-opacity:1;fill-rule:nonzero;stroke:none"
         d="m 1320.69,1725.86 c -1.04,0 -2.07,0.43 -2.84,1.28 -1.52,1.68 -1.48,4.35 0.08,5.98 205.98,214.12 485.73,347.91 684.14,422.44 214.89,80.72 383.37,111.27 385.04,111.57 2.17,0.38 4.2,-1.17 4.56,-3.48 0.36,-2.3 -1.1,-4.49 -3.26,-4.87 -1.67,-0.3 -169.6,-30.76 -383.87,-111.27 -197.61,-74.25 -476.19,-207.46 -681.1,-420.46 -0.76,-0.79 -1.76,-1.19 -2.75,-1.19" /><path
         id="path214"
         style="fill:#ffffff;fill-opacity:1;fill-rule:nonzero;stroke:none"
         d="m 2576.8,2034.69 c -0.6,0 -1.21,0.14 -1.78,0.46 -1.95,1.04 -2.73,3.59 -1.75,5.68 1.57,3.34 157.04,338.52 130.04,692.12 -0.18,2.33 1.44,4.37 3.62,4.56 2.13,0.22 4.08,-1.54 4.26,-3.87 27.19,-356.02 -129.27,-693.26 -130.86,-696.62 -0.69,-1.48 -2.08,-2.33 -3.53,-2.33" /><path
         id="path216"
         style="fill:#ffffff;fill-opacity:1;fill-rule:nonzero;stroke:none"
         d="m 1887.5,1383.66 c -0.87,0 -1.74,0.3 -2.47,0.93 -1.7,1.45 -1.98,4.12 -0.62,5.95 295.34,395.49 738.89,576.44 743.33,578.22 2.05,0.82 4.33,-0.29 5.1,-2.48 0.76,-2.19 -0.27,-4.63 -2.32,-5.44 -4.43,-1.78 -445.99,-181.97 -739.93,-575.6 -0.78,-1.04 -1.93,-1.58 -3.09,-1.58" /><path
         id="path218"
         style="fill:#f0feff;fill-opacity:1;fill-rule:nonzero;stroke:none"
         d="m 819.867,950.059 c 660.003,0 6377.263,0 6662.983,0 285.72,0 377.15,-84.008 377.15,-179.168 0,-95.172 -168.12,-180.942 -373.86,-180.942 -205.72,0 -1078.34,-193.969 -1789.15,-193.969 -710.81,0 -3247.73,0 -3575.71,0 -487.8,0 -1317.503,206.918 -1626.089,206.918 -167.632,0 -224.781,115.813 -224.781,163.184 0,105.289 161.703,183.977 549.457,183.977" /><path
         id="path220"
         style="fill:#fed20f;fill-opacity:1;fill-rule:nonzero;stroke:none"
         d="m 2915.36,943.262 c -330.25,98.148 -599.95,288.528 -801.61,565.848 -161.05,221.48 -279.2,498.51 -351.16,823.39 -122.36,552.37 -67.86,1059.12 -67.29,1064.17 l 0.95,8.47 8.37,1.59 c 468.33,88.92 771.05,233.72 942.53,339.53 185.69,114.57 261.69,209.34 262.43,210.28 l 9.06,11.46 9.07,-11.46 c 0.75,-0.94 76.75,-95.71 262.43,-210.28 171.49,-105.81 474.21,-250.61 942.55,-339.53 l 8.35,-1.59 0.95,-8.47 c 0.57,-5.05 55.07,-511.8 -67.28,-1064.17 -71.97,-324.88 -190.12,-601.91 -351.16,-823.39 -201.67,-277.32 -471.37,-467.7 -801.62,-565.848 l -3.28,-0.973 -3.29,0.973" /><path
         id="path222"
         style="fill:#ffffff;fill-opacity:1;fill-rule:nonzero;stroke:none"
         d="m 2918.61,3986.59 -18.07,-22.88 v 0 c -0.75,-0.94 -76.33,-94.87 -260.86,-208.5 -170.52,-105 -471.55,-248.72 -937.21,-337.14 l -16.75,-3.18 -1.89,-16.93 c -0.14,-1.28 -14.2,-129.49 -12.86,-324.09 1.25,-179.48 16.19,-454.22 80.35,-743.86 72.31,-326.45 191.11,-604.92 353.09,-827.69 203.19,-279.42 474.93,-471.24 807.66,-570.121 l 6.58,-1.961 6.57,1.961 c 332.74,98.881 604.47,290.701 807.66,570.121 161.99,222.77 280.79,501.24 353.1,827.69 64.16,289.64 79.1,564.38 80.34,743.86 1.35,194.6 -12.71,322.81 -12.85,324.09 l -1.9,16.93 -16.74,3.18 c -465.66,88.42 -766.69,232.14 -937.22,337.14 -184.53,113.63 -260.11,207.56 -260.85,208.5 l -18.15,22.88 z m 0.04,-37.2 c 0,0 300.08,-380.87 1211.88,-554 0,0 225.06,-2014.02 -1211.88,-2441.058 C 1481.71,1381.37 1706.77,3395.39 1706.77,3395.39 c 911.79,173.13 1211.88,554 1211.88,554 v 0" /><path
         id="path224"
         style="fill:#fda800;fill-opacity:1;fill-rule:nonzero;stroke:none"
         d="m 3500.79,1388.93 c -2.2,0 -4.39,0.83 -6.08,2.5 -3.4,3.36 -3.43,8.83 -0.08,12.23 50.44,51.09 97.96,107.07 141.24,166.4 152.35,208.88 264.61,471.75 333.66,781.31 94.45,423.37 81.41,820.26 71.42,971.25 -0.32,4.77 3.29,8.89 8.06,9.21 4.75,0.32 8.9,-3.29 9.21,-8.07 10.05,-151.73 23.15,-550.6 -71.79,-976.16 -69.58,-311.9 -182.82,-576.93 -336.57,-787.74 -43.79,-60.02 -91.87,-116.67 -142.91,-168.36 -1.69,-1.71 -3.92,-2.57 -6.16,-2.57" /><path
         id="path226"
         style="fill:#fda800;fill-opacity:1;fill-rule:nonzero;stroke:none"
         d="m 2918.64,1036.19 c -3.67,0 -7.08,2.36 -8.25,6.06 -1.43,4.56 1.09,9.41 5.65,10.86 164.47,51.84 314.03,129.63 444.5,231.21 3.76,2.94 9.21,2.26 12.14,-1.52 2.94,-3.77 2.26,-9.21 -1.51,-12.14 -132.1,-102.85 -283.47,-181.6 -449.92,-234.07 -0.86,-0.27 -1.74,-0.4 -2.61,-0.4" /><path
         id="path228"
         style="fill:#ffffff;fill-opacity:1;fill-rule:nonzero;stroke:none"
         d="m 1859.3,2340.82 c -3.96,0 -7.54,2.74 -8.44,6.78 -21.58,96.76 -39.01,198.97 -51.82,303.79 -0.58,4.74 2.8,9.06 7.54,9.64 4.77,0.57 9.06,-2.8 9.65,-7.54 12.73,-104.27 30.07,-205.91 51.53,-302.12 1.04,-4.67 -1.9,-9.3 -6.56,-10.33 -0.64,-0.15 -1.27,-0.22 -1.9,-0.22" /><path
         id="path230"
         style="fill:#ffffff;fill-opacity:1;fill-rule:nonzero;stroke:none"
         d="m 1794.88,2765.72 c -4.44,0 -8.21,3.4 -8.61,7.91 -21.56,247.6 -13.77,450.95 -7.2,550.13 l 0.44,6.58 6.45,1.33 c 651.49,134.67 985.64,371.33 1126.85,500.42 3.53,3.23 9.01,2.98 12.22,-0.55 3.23,-3.53 2.99,-9 -0.54,-12.22 -142.05,-129.87 -477.28,-367.53 -1128.57,-503.27 -6.43,-100.91 -13.4,-299.81 7.6,-540.92 0.41,-4.76 -3.11,-8.96 -7.88,-9.37 -0.25,-0.02 -0.5,-0.04 -0.76,-0.04" /><path
         id="path232"
         style="fill:#f45e32;fill-opacity:1;fill-rule:nonzero;stroke:none"
         d="m 2918.64,1209.15 c -466.18,165.59 -771.55,561.59 -908.14,1178.26 -71.61,323.29 -78.03,627.87 -72.92,809.48 496.38,118.18 805.37,294.45 981.07,426.59 175.66,-132.11 484.61,-308.35 980.8,-426.53 5.04,-184.45 -1.62,-495.34 -75.2,-820.91 -137.89,-610.2 -442.37,-1002.37 -905.61,-1166.89" /><path
         id="path234"
         style="fill:#fda800;fill-opacity:1;fill-rule:nonzero;stroke:none"
         d="m 2330.86,1787.46 c -2.9,0 -5.73,1.46 -7.37,4.1 -35.6,57.5 -68.46,119.41 -97.67,184.01 -1.97,4.36 -0.03,9.49 4.32,11.46 4.36,1.96 9.48,0.03 11.46,-4.32 28.9,-63.93 61.4,-125.17 96.61,-182.04 2.52,-4.06 1.26,-9.39 -2.8,-11.91 -1.42,-0.88 -3,-1.3 -4.55,-1.3" /><path
         id="path236"
         style="fill:#fda800;fill-opacity:1;fill-rule:nonzero;stroke:none"
         d="m 2165.74,2143.12 c -3.6,0 -6.96,2.26 -8.19,5.85 -27.34,80.16 -51.22,166.06 -70.99,255.3 -62.57,282.48 -73.86,549.96 -72.31,724.62 l 0.05,6.65 6.45,1.66 c 270.98,69.48 513.18,163.26 719.87,278.76 4.17,2.33 9.44,0.83 11.77,-3.34 2.33,-4.17 0.84,-9.45 -3.33,-11.78 -206.35,-115.3 -447.72,-209.07 -717.56,-278.75 -1.19,-173.85 10.53,-436.75 71.96,-714.08 19.63,-88.62 43.34,-173.89 70.48,-253.45 1.54,-4.52 -0.88,-9.44 -5.4,-10.99 -0.93,-0.31 -1.87,-0.45 -2.8,-0.45" /><path
         id="path238"
         style="fill:#d43c1e;fill-opacity:1;fill-rule:nonzero;stroke:none"
         d="m 2918.65,1292.76 c -3.48,0 -6.77,2.12 -8.09,5.56 -1.71,4.46 0.52,9.47 4.98,11.18 200.45,76.9 369.57,202.84 502.69,374.35 142.26,183.3 247.62,423.24 313.15,713.18 1.05,4.66 5.7,7.59 10.35,6.53 4.66,-1.05 7.59,-5.69 6.54,-10.35 -66.09,-292.43 -172.53,-534.66 -316.37,-719.97 -135.07,-174.04 -306.72,-301.86 -510.16,-379.9 -1.02,-0.39 -2.06,-0.58 -3.09,-0.58" /><path
         id="path240"
         style="fill:#004275;fill-opacity:1;fill-rule:nonzero;stroke:none"
         d="m 3230.12,2749.1 c 0,172.11 -139.52,311.62 -311.63,311.62 -172.11,0 -311.62,-139.51 -311.62,-311.62 0,-125.34 74.03,-233.33 180.72,-282.8 l -61.46,-694.4 h 384.72 l -61.47,694.4 c 106.7,49.47 180.74,157.46 180.74,282.8" /><path
         id="path242"
         style="fill:#ffffff;fill-opacity:1;fill-rule:nonzero;stroke:none"
         d="M 6402.26,2697.52 H 4262.89 c -42.93,0 -77.85,-33.48 -77.85,-74.64 v -151.87 c 0,-41.17 34.92,-74.65 77.85,-74.65 h 2123.51 15.86 v 15.2 270.76 15.2 z m -15.86,-15.2 V 2411.56 H 4262.89 c -34.24,0 -61.99,26.62 -61.99,59.45 v 151.87 c 0,32.82 27.75,59.44 61.99,59.44 H 6386.4 v 0" /><path
         id="path244"
         style="fill:#ed850e;fill-opacity:1;fill-rule:nonzero;stroke:none"
         d="m 4991.4,2481.7 v -600.61 c 0,-10.25 -8.68,-18.56 -19.37,-18.56 h -183.44 c -10.69,0 -19.36,8.31 -19.36,18.56 v 214.25 c 0,10.25 -8.67,18.56 -19.37,18.56 h -176.95 c -10.69,0 -19.37,-8.31 -19.37,-18.56 V 1613.6 c 0,-10.25 -8.67,-18.56 -19.36,-18.56 H 4336.5 c -10.69,0 -19.35,8.31 -19.35,18.56 v 868.1 h 674.25" /><path
         id="path246"
         style="fill:#ffffff;fill-opacity:1;fill-rule:nonzero;stroke:none"
         d="m 5007.26,2496.9 h -705.97 v -883.3 c 0,-18.62 15.8,-33.77 35.21,-33.77 h 197.68 c 19.42,0 35.22,15.15 35.22,33.77 v 481.74 c 0,1.85 1.58,3.35 3.51,3.35 h 176.95 c 1.94,0 3.51,-1.5 3.51,-3.35 v -214.25 c 0,-18.61 15.8,-33.77 35.22,-33.77 h 183.44 c 19.43,0 35.23,15.16 35.23,33.77 v 600.61 15.2 z m -15.86,-15.2 v -600.61 c 0,-10.25 -8.68,-18.56 -19.37,-18.56 h -183.44 c -10.69,0 -19.36,8.31 -19.36,18.56 v 214.25 c 0,10.25 -8.67,18.56 -19.37,18.56 h -176.95 c -10.69,0 -19.37,-8.31 -19.37,-18.56 V 1613.6 c 0,-10.25 -8.67,-18.56 -19.36,-18.56 H 4336.5 c -10.69,0 -19.35,8.31 -19.35,18.56 v 868.1 h 674.25 v 0" /><path
         id="path248"
         style="fill:#f45e32;fill-opacity:1;fill-rule:nonzero;stroke:none"
         d="M 4499.29,1635.91 H 4371.4 c -6.42,0 -11.62,4.99 -11.62,11.14 0,6.16 5.2,11.15 11.62,11.15 h 116.27 v 437.14 c 0,45.06 38.24,81.72 85.24,81.72 6.42,0 11.62,-4.99 11.62,-11.15 0,-6.15 -5.2,-11.14 -11.62,-11.14 -34.18,0 -61.99,-26.66 -61.99,-59.43 v -448.29 c 0,-6.15 -5.21,-11.14 -11.63,-11.14" /><path
         id="path250"
         style="fill:#f45e32;fill-opacity:1;fill-rule:nonzero;stroke:none"
         d="m 4937.14,1903.4 h -45.53 c -6.42,0 -11.63,4.99 -11.63,11.14 0,6.16 5.21,11.15 11.63,11.15 h 33.91 v 158.49 c 0,6.16 5.2,11.14 11.62,11.14 6.42,0 11.63,-4.98 11.63,-11.14 v -169.64 c 0,-6.15 -5.21,-11.14 -11.63,-11.14" /><path
         id="path252"
         style="fill:#f45e32;fill-opacity:1;fill-rule:nonzero;stroke:none"
         d="m 4937.14,2175.82 c -6.42,0 -11.62,4.99 -11.62,11.14 v 149.85 c 0,6.16 5.2,11.14 11.62,11.14 6.42,0 11.63,-4.98 11.63,-11.14 v -149.85 c 0,-6.15 -5.21,-11.14 -11.63,-11.14" /><path
         id="path254"
         style="fill:#fda800;fill-opacity:1;fill-rule:nonzero;stroke:none"
         d="M 6386.4,2411.56 H 4261.6 c -33.52,0 -60.7,27.18 -60.7,60.72 v 149.33 c 0,33.53 27.18,60.71 60.7,60.71 h 2124.8 v -270.76" /><path
         id="path256"
         style="fill:#ed850e;fill-opacity:1;fill-rule:nonzero;stroke:none"
         d="m 5761.88,2452.43 h -512.92 c -6.42,0 -11.63,4.99 -11.63,11.14 0,6.17 5.21,11.16 11.63,11.16 h 512.92 c 6.43,0 11.64,-4.99 11.64,-11.16 0,-6.15 -5.21,-11.14 -11.64,-11.14" /><path
         id="path258"
         style="fill:#ed850e;fill-opacity:1;fill-rule:nonzero;stroke:none"
         d="m 6043.83,2452.43 h -138.48 c -6.42,0 -11.63,4.99 -11.63,11.14 0,6.17 5.21,11.16 11.63,11.16 h 138.48 c 6.41,0 11.62,-4.99 11.62,-11.16 0,-6.15 -5.21,-11.14 -11.62,-11.14" /><path
         id="path260"
         style="fill:#fdd247;fill-opacity:1;fill-rule:nonzero;stroke:none"
         d="m 5734.71,2619.16 h -363.04 c -6.43,0 -11.63,4.99 -11.63,11.15 0,6.15 5.2,11.14 11.63,11.14 h 363.04 c 6.41,0 11.62,-4.99 11.62,-11.14 0,-6.16 -5.21,-11.15 -11.62,-11.15" /><path
         id="path262"
         style="fill:#fdd247;fill-opacity:1;fill-rule:nonzero;stroke:none"
         d="m 4255.15,2499.21 c -6.43,0 -11.62,4.99 -11.62,11.15 v 112.52 c 0,10.24 8.69,18.57 19.36,18.57 h 974.63 c 6.43,0 11.62,-4.99 11.62,-11.14 0,-6.16 -5.19,-11.15 -11.62,-11.15 h -970.75 v -108.8 c 0,-6.16 -5.21,-11.15 -11.62,-11.15" /><path
         id="path264"
         style="fill:#fda800;fill-opacity:1;fill-rule:nonzero;stroke:none"
         d="m 7176.89,2272.02 c 0,-186.42 -158.17,-338.08 -352.62,-338.08 -194.45,0 -352.62,151.66 -352.62,338.08 v 549.84 c 0,186.43 158.17,338.08 352.62,338.08 194.45,0 352.62,-151.65 352.62,-338.08 z m 88.51,972.77 C 7152.56,3353.05 6996.55,3420 6824.27,3420 6479.71,3420 6200.4,3152.21 6200.4,2821.86 v -549.84 c 0,-330.35 279.31,-598.14 623.87,-598.14 344.57,0 623.87,267.79 623.87,598.14 v 549.84 c 0,165.18 -69.82,314.75 -182.74,422.93" /><path
         id="path266"
         style="fill:#ed850e;fill-opacity:1;fill-rule:nonzero;stroke:none"
         d="m 6824.28,1714.75 c -320.51,0 -581.26,249.99 -581.26,557.27 0,6.15 5.2,11.14 11.63,11.14 6.41,0 11.62,-4.99 11.62,-11.14 0,-294.99 250.32,-534.98 558.01,-534.98 307.67,0 558,239.99 558,534.98 0,6.15 5.2,11.14 11.62,11.14 6.41,0 11.62,-4.99 11.62,-11.14 0,-307.28 -260.74,-557.27 -581.24,-557.27" /><path
         id="path268"
         style="fill:#ed850e;fill-opacity:1;fill-rule:nonzero;stroke:none"
         d="m 7393.9,2366.53 c -6.42,0 -11.62,4.99 -11.62,11.15 v 304.64 c 0,6.16 5.2,11.14 11.62,11.14 6.41,0 11.62,-4.98 11.62,-11.14 v -304.64 c 0,-6.16 -5.21,-11.15 -11.62,-11.15" /><path
         id="path270"
         style="fill:#ed850e;fill-opacity:1;fill-rule:nonzero;stroke:none"
         d="m 6417.4,2810.72 c -6.42,0 -11.63,4.99 -11.63,11.15 0,221.24 187.75,401.23 418.51,401.23 86.36,0 169.34,-25.13 239.96,-72.67 5.25,-3.54 6.52,-10.49 2.83,-15.53 -3.69,-5.03 -10.93,-6.25 -16.19,-2.71 -66.68,44.89 -145.04,68.62 -226.6,68.62 -217.94,0 -395.26,-169.99 -395.26,-378.94 0,-6.16 -5.2,-11.15 -11.62,-11.15" /><path
         id="path272"
         style="fill:#fdd247;fill-opacity:1;fill-rule:nonzero;stroke:none"
         d="m 6673.16,3337.34 c -5.09,0 -9.78,3.25 -11.2,8.19 -1.71,5.93 1.94,12.07 8.12,13.7 50.02,13.21 101.89,19.91 154.2,19.91 6.41,0 11.62,-4.99 11.62,-11.15 0,-6.15 -5.21,-11.14 -11.62,-11.14 -50.22,0 -100.02,-6.43 -148.02,-19.11 -1.04,-0.27 -2.07,-0.4 -3.1,-0.4" /><path
         id="path274"
         style="fill:#fdd247;fill-opacity:1;fill-rule:nonzero;stroke:none"
         d="m 6254.65,2810.72 c -6.43,0 -11.63,4.99 -11.63,11.15 0,207.93 119.71,397.23 312.43,494 5.7,2.87 12.71,0.75 15.69,-4.69 2.97,-5.46 0.78,-12.2 -4.91,-15.05 -185.02,-92.92 -299.96,-274.65 -299.96,-474.26 0,-6.16 -5.21,-11.15 -11.62,-11.15" /><path
         id="path276"
         style="fill:#fdd247;fill-opacity:1;fill-rule:nonzero;stroke:none"
         d="m 7231.15,2260.87 c -6.42,0 -11.63,4.99 -11.63,11.15 v 189.86 c 0,6.16 5.21,11.15 11.63,11.15 6.42,0 11.62,-4.99 11.62,-11.15 v -189.86 c 0,-6.16 -5.2,-11.15 -11.62,-11.15" /><path
         id="path278"
         style="fill:#fdd247;fill-opacity:1;fill-rule:nonzero;stroke:none"
         d="m 6824.28,1870.78 c -132.82,0 -254.9,58.64 -334.92,160.89 -3.86,4.92 -2.82,11.9 2.32,15.61 5.13,3.69 12.42,2.7 16.28,-2.23 75.58,-96.58 190.88,-151.97 316.32,-151.97 167.12,0 316.91,101.61 372.74,252.84 2.15,5.81 8.78,8.84 14.84,6.79 6.05,-2.06 9.22,-8.42 7.09,-14.22 -59.12,-160.13 -217.72,-267.71 -394.67,-267.71" /><path
         id="path280"
         style="fill:#f7c4a5;fill-opacity:1;fill-rule:nonzero;stroke:none"
         d="m 5218.82,2414 c 0,0 -31.38,-10.5 -57.36,-19.51 -1.66,-0.57 -3.44,-2.49 -0.01,-4.09 4.24,-1.98 15.99,-3.61 41.96,-0.57 32.82,3.86 15.41,24.17 15.41,24.17" /><path
         id="path282"
         style="fill:#f7c4a5;fill-opacity:1;fill-rule:nonzero;stroke:none"
         d="m 5174.39,2374.21 c 4.79,31.01 46.76,61.71 83.52,20.58 0,0 -2.63,-22.06 -22.82,-42.11 0,0 -50.86,8.96 -60.7,21.53" /><path
         id="path284"
         style="fill:#f4b09a;fill-opacity:1;fill-rule:nonzero;stroke:none"
         d="m 5841.33,2088.79 c -12.69,11.92 -13.3,31.87 -1.37,44.55 11.92,12.69 31.88,13.3 44.55,1.38 12.69,-11.94 13.3,-31.88 1.38,-44.56 -11.93,-12.69 -31.88,-13.3 -44.56,-1.37" /><path
         id="path286"
         style="fill:#f4b09a;fill-opacity:1;fill-rule:nonzero;stroke:none"
         d="m 5628.44,2389.91 c 97.25,-165.9 196.11,-283.65 206.38,-295.3 14.59,-16.54 35.24,-18.8 50.02,-5.51 14.71,13.21 20.02,35.86 6.05,55.22 -67.44,93.39 -142.79,159.71 -241.2,260.82 l -21.25,-15.23" /><path
         id="path288"
         style="fill:#f4b09a;fill-opacity:1;fill-rule:nonzero;stroke:none"
         d="m 5795.26,2498.77 c 5.46,-20.01 -6.32,-40.66 -26.33,-46.13 -20.01,-5.47 -40.68,6.32 -46.14,26.33 -5.47,20.01 6.32,40.67 26.33,46.14 20.02,5.47 40.67,-6.33 46.14,-26.34" /><path
         id="path290"
         style="fill:#f4b09a;fill-opacity:1;fill-rule:nonzero;stroke:none"
         d="m 5898.4,2120.07 c 4.59,-16.8 -5.3,-34.13 -22.1,-38.72 -16.79,-4.59 -34.12,5.31 -38.71,22.1 -4.59,16.79 5.3,34.13 22.1,38.72 16.79,4.59 34.13,-5.31 38.71,-22.1" /><path
         id="path292"
         style="fill:#f4b09a;fill-opacity:1;fill-rule:nonzero;stroke:none"
         d="m 5802.67,2493.2 c -14.1,27.9 -31.98,44.4 -54.4,38.27 -26.64,-7.27 -33.34,-36.8 -27.84,-68.78 34.42,-200.15 84.4,-224.72 107.03,-349.78 4.19,-23.16 25.92,-37.74 50.94,-30.91 16.39,4.47 22.77,23.66 20.77,46.95 -24.33,283.81 -82.95,337.41 -96.5,364.25" /><path
         id="path294"
         style="fill:#6acef0;fill-opacity:1;fill-rule:nonzero;stroke:none"
         d="m 5744.44,2526.21 c 7.54,2.7 15.21,3.54 22.76,2.51 21.19,-2.89 40.26,-20.27 53.74,-48.94 49.15,-104.69 74.92,-227.77 75.67,-231.34 -18.92,-7.29 -78.72,-34.97 -104.78,-42.31 -73.29,155.36 -71.51,195.05 -77.63,245.09 -6.21,50.64 12.46,68.66 30.24,74.99" /><path
         id="path296"
         style="fill:#f4b09a;fill-opacity:1;fill-rule:nonzero;stroke:none"
         d="m 5585.06,1192.26 c 1.98,-30.24 -20.93,-56.36 -51.16,-58.34 -30.24,-1.99 -56.36,20.92 -58.34,51.16 -1.99,30.23 20.92,56.36 51.16,58.34 30.23,1.98 56.36,-20.93 58.34,-51.16" /><path
         id="path298"
         style="fill:#f4b09a;fill-opacity:1;fill-rule:nonzero;stroke:none"
         d="m 5578.85,1192.58 -103.3,-7.51 c 2.44,-111.18 15.95,-271.031 30.09,-437.05 v 0 c 2.14,-25.59 -16.56,-56.739 -36.99,-72.29 -7.85,-5.968 -17.4,-11.308 -27.12,-15.75 5.66,-27.941 117.29,-8.089 118.05,54.301 -3.29,6.418 -6.49,11.489 -6.14,18.5 6.57,132.77 101.28,339.249 25.41,459.799" /><path
         id="path300"
         style="fill:#f4a086;fill-opacity:1;fill-rule:nonzero;stroke:none"
         d="m 5793.87,1181.49 c 8.44,-29.1 -8.29,-59.54 -37.4,-67.98 -29.1,-8.46 -59.54,8.29 -67.98,37.38 -8.46,29.1 8.29,59.54 37.38,68 29.1,8.44 59.54,-8.29 68,-37.4" /><path
         id="path302"
         style="fill:#f4a086;fill-opacity:1;fill-rule:nonzero;stroke:none"
         d="m 5787.73,1180.47 -99.26,-29.59 c 26.34,-108.04 73.97,-261.22 123.55,-420.298 v 0 c 7.6,-24.531 -10.07,-53.711 -29.34,-70.652 -7.41,-6.532 -16.57,-12.52 -25.94,-17.641 7.62,-27.469 127.91,5.871 115.22,66.973 -4.6,5.547 -8.82,9.808 -9.99,16.738 -22.18,131.059 25.81,353.09 -74.24,454.47" /><path
         id="path304"
         style="fill:#0a3c5f;fill-opacity:1;fill-rule:nonzero;stroke:none"
         d="m 5876.28,627.969 h -143.43 v 2.902 c 0,7.461 4.18,13.828 9.92,14.961 7.99,1.539 25.5,7.188 38.56,14.789 2.15,-3.762 19.83,-7.031 32.91,-5.312 20.11,2.64 62.21,24.961 56.22,58.972 1.03,-2.582 2.28,-5.332 3.82,-8.5 13.59,-28.441 4.35,-54.84 2,-77.812" /><path
         id="path306"
         style="fill:#f4a086;fill-opacity:1;fill-rule:nonzero;stroke:none"
         d="m 5814.8,1747.58 c 9.05,-71.87 -41.88,-137.44 -113.74,-146.49 -71.85,-9.03 -137.44,41.9 -146.47,113.75 -9.04,71.86 41.88,137.45 113.74,146.48 71.87,9.04 137.44,-41.89 146.47,-113.74" /><path
         id="path308"
         style="fill:#f4a086;fill-opacity:1;fill-rule:nonzero;stroke:none"
         d="m 5556.68,1694.86 c 39.12,-189.22 75.34,-337.02 131.11,-541.38 l 116.11,-4.17 c 16.83,226.61 29.37,474.97 -0.85,580.86 l -246.37,-35.31" /><path
         id="path310"
         style="fill:#0a3c5f;fill-opacity:1;fill-rule:nonzero;stroke:none"
         d="m 5566.96,627.969 h -181.75 v 2.902 c 0,7.461 5.29,13.828 12.57,14.961 10.13,1.539 27.22,6.547 43.76,14.148 2.72,-3.75 9.54,-6.871 25.86,-4.058 30.71,5.187 88.08,23.867 92.19,58.359 1.32,-2.582 2.9,-5.332 4.84,-8.5 17.22,-28.441 5.51,-54.84 2.53,-77.812" /><path
         id="path312"
         style="fill:#f4b09a;fill-opacity:1;fill-rule:nonzero;stroke:none"
         d="m 5753.28,1723.68 c -7.35,-79.75 -77.98,-138.45 -157.74,-131.09 -79.76,7.36 -138.45,77.99 -131.1,157.74 7.37,79.77 77.99,138.46 157.75,131.1 79.76,-7.37 138.45,-77.98 131.09,-157.75" /><path
         id="path314"
         style="fill:#f4b09a;fill-opacity:1;fill-rule:nonzero;stroke:none"
         d="m 5464.03,1744.67 c -2.56,-193.21 0.98,-345.34 11.41,-556.93 l 112.49,-29.08 c 65.24,217.67 131.01,457.49 124.3,567.41 l -248.2,18.6" /><path
         id="path316"
         style="fill:#df4223;fill-opacity:1;fill-rule:nonzero;stroke:none"
         d="m 5508.77,1909.18 c -44.94,-76.87 -74.5,-195.85 -49.73,-540.28 0,0 248.99,-71.2 389.9,44.41 0,0 -28.8,87.84 -14.64,206.51 5.48,45.92 91.93,240.8 -73.39,345.25 -121.88,77.01 -192.44,46.17 -252.14,-55.89" /><path
         id="path318"
         style="fill:#0071bc;fill-opacity:1;fill-rule:nonzero;stroke:none"
         d="m 5693.89,1923.68 c -2.4,-20.25 -20.76,-34.72 -41.01,-32.33 -20.25,2.39 -34.73,20.75 -32.32,41 2.39,20.26 20.75,34.73 40.99,32.33 20.26,-2.39 34.73,-20.75 32.34,-41" /><path
         id="path320"
         style="fill:#0071bc;fill-opacity:1;fill-rule:nonzero;stroke:none"
         d="m 5633.09,2576.58 c -41.29,-24.45 -87.34,-108.77 -163.19,-146.96 0,0 -18.61,-89.88 49.46,-122.86 0,0 68.71,-282.64 -37.93,-395.23 0,0 228.72,-99.63 345.33,20.25 0,0 -85.54,126.62 -48.98,282.58 20.03,85.43 56.38,279.26 -51.24,368.46 -33.51,27.78 -69.11,8.18 -93.45,-6.24" /><path
         id="path322"
         style="fill:#0071bc;fill-opacity:1;fill-rule:nonzero;stroke:none"
         d="m 5794.8,2499.95 c 6.15,-19.82 -4.94,-40.86 -24.76,-47 -19.82,-6.14 -40.85,4.94 -46.99,24.76 -6.15,19.82 4.94,40.86 24.76,47 19.82,6.14 40.85,-4.94 46.99,-24.76" /><path
         id="path324"
         style="fill:#ffa361;fill-opacity:1;fill-rule:nonzero;stroke:none"
         d="m 5738.7,2571.87 c -8.16,23.58 -4.75,64.71 -0.56,94.86 2.74,19.62 -7.93,37.45 -23.91,39.34 v 0 c -15.98,1.89 -30.52,-12.96 -32.43,-32.67 -2.95,-30.3 -9.24,-71.09 -22.68,-92.12 -2.57,-27.2 75.73,-36.47 79.58,-9.41" /><path
         id="path326"
         style="fill:#f4b09a;fill-opacity:1;fill-rule:nonzero;stroke:none"
         d="m 5621.4,2886.25 c -48.32,-81.41 -16.21,-190.99 -16.21,-190.99 38.9,-134.2 139.73,8.92 148.69,22.98 23.73,37.21 31,111.26 -0.8,143.49 -40.09,40.63 -120.79,42.18 -131.68,24.52" /><path
         id="path328"
         style="fill:#df4223;fill-opacity:1;fill-rule:nonzero;stroke:none"
         d="m 5880.34,2555.31 c -11.64,39.49 -54.41,64.19 -64.55,104.09 -8.23,32.42 26.5,65.6 30.7,98.77 7.92,62.27 -27.07,126.12 -80.67,158.78 -42.07,25.63 -76.43,29.46 -124.47,20.56 -15.26,-2.82 -42.33,-25.22 -46.91,-54.25 -3.39,-21.47 8.43,-49.74 37.86,-60.47 74.5,-27.16 24.1,-110.97 36.81,-168.9 5.75,-26.22 22.96,-48.21 34.85,-72.27 15.09,-30.58 9.37,-53.15 2.92,-84.08 -8.05,-38.65 -9.03,-80.54 -9.9,-119.88 -0.71,-32.47 0.61,-66.6 17,-94.62 16.62,-28.4 46.88,-44.99 79.27,-47.79 17.79,-1.53 37.07,3.35 48.73,16.87 13.08,15.17 13.83,37.64 9.06,57.09 -4.77,19.45 -14.23,37.47 -19.55,56.78 -10.27,37.31 7.97,54.41 24.44,84.47 17.72,32.34 34.84,69.47 24.41,104.85" /><path
         id="path330"
         style="fill:#f7c4a5;fill-opacity:1;fill-rule:nonzero;stroke:none"
         d="m 5649.59,2471.54 c -9.55,-18.42 -32.22,-25.6 -50.63,-16.06 -18.42,9.54 -25.62,32.22 -16.07,50.63 9.54,18.42 32.21,25.61 50.63,16.07 18.42,-9.55 25.61,-32.22 16.07,-50.64" /><path
         id="path332"
         style="fill:#f7c4a5;fill-opacity:1;fill-rule:nonzero;stroke:none"
         d="m 5468.71,2123.2 c -8.01,-15.46 -27.03,-21.49 -42.49,-13.48 -15.46,8.01 -21.49,27.04 -13.49,42.5 8.02,15.45 27.05,21.48 42.49,13.47 15.46,-8 21.5,-27.03 13.49,-42.49" /><path
         id="path334"
         style="fill:#f7c4a5;fill-opacity:1;fill-rule:nonzero;stroke:none"
         d="m 5651.26,2462.43 c 8.55,30.06 6.58,54.32 -14.05,65.01 -24.52,12.71 -49.47,-4.46 -67.1,-31.7 -110.36,-170.49 -90.27,-222.42 -158.41,-329.7 -12.62,-19.88 -6.52,-45.33 16.5,-57.26 15.08,-7.81 32.79,1.96 47.09,20.43 174.5,225.16 167.74,304.3 175.97,333.22" /><path
         id="path336"
         style="fill:#f7c4a5;fill-opacity:1;fill-rule:nonzero;stroke:none"
         d="m 5637.21,2527.44 c -24.52,12.71 -49.47,-4.46 -67.1,-31.7 -110.36,-170.49 -90.27,-222.42 -158.41,-329.7 -9.99,-15.75 -8.07,-34.89 4.54,-48.14 2.66,-3.29 5.99,-6.11 9.98,-8.18 0.44,-0.23 0.91,-0.34 1.36,-0.54 0.22,-0.12 0.4,-0.28 0.62,-0.4 4.35,-2.26 8.92,-2.89 13.56,-2.44 9.42,0.32 18.41,4.81 24.23,12.69 3.2,3 6.33,6.35 9.3,10.18 174.5,225.16 167.74,304.3 175.97,333.22 8.55,30.06 6.58,54.32 -14.05,65.01" /><path
         id="path338"
         style="fill:#6acef0;fill-opacity:1;fill-rule:nonzero;stroke:none"
         d="m 5642.5,2537.67 c -7.11,3.69 -14.59,5.56 -22.21,5.56 -21.38,0 -42.63,-14.64 -59.86,-41.23 -62.84,-97.09 -105.02,-215.55 -106.25,-219 17.77,-9.77 73.27,-45.28 98.11,-56.07 93.61,144.04 97.2,183.6 110.04,232.35 12.99,49.33 -3.07,69.71 -19.83,78.39" /><path
         id="path340"
         style="fill:#0396c8;fill-opacity:1;fill-rule:nonzero;stroke:none"
         d="m 5569.57,2268.68 c -0.68,0 -1.4,0.17 -2.05,0.52 l -89.28,48.24 c -2.09,1.13 -2.88,3.76 -1.75,5.85 1.15,2.09 3.76,2.88 5.86,1.76 l 89.28,-48.24 c 2.1,-1.15 2.88,-3.76 1.75,-5.86 -0.78,-1.45 -2.28,-2.27 -3.81,-2.27" /><path
         id="path342"
         style="fill:#f7c4a5;fill-opacity:1;fill-rule:nonzero;stroke:none"
         d="m 5423,2112.93 c -11.18,10.84 -11.56,28.91 -0.87,40.35 10.69,11.46 28.43,11.94 39.61,1.1 11.18,-10.84 11.56,-28.9 0.87,-40.36 -10.71,-11.44 -28.43,-11.93 -39.61,-1.09" /><path
         id="path344"
         style="fill:#f7c4a5;fill-opacity:1;fill-rule:nonzero;stroke:none"
         d="m 5236.57,2385.97 c 85.13,-150.56 171.65,-257.16 180.7,-267.75 12.84,-15.03 31.16,-17.13 44.4,-5.14 13.18,11.92 18.08,32.41 5.81,49.99 -59.21,84.78 -126.04,143.18 -212.71,235.05 l -18.2,-12.15" /><path
         id="path346"
         style="fill:#094fe9;fill-opacity:1;fill-rule:nonzero;stroke:none"
         d="m 6917.58,1194.06 c 0.26,-30.1 -23.93,-54.7 -54.03,-54.97 -30.09,-0.26 -54.7,23.92 -54.97,54.02 -0.26,30.09 23.93,54.71 54.03,54.97 30.1,0.26 54.7,-23.92 54.97,-54.02" /><path
         id="path348"
         style="fill:#0a3c5f;fill-opacity:1;fill-rule:nonzero;stroke:none"
         d="m 6861.77,630.359 -154.04,0.223 0.01,2.957 c 0,6.109 4.38,11.332 10.31,12.242 22.58,3.41 61.27,12.117 85.83,53.77 0.79,1.347 1.62,2.781 2.36,4.219 5.28,7.582 14.05,12.589 23.99,12.57 14.53,-0.02 26.55,-10.719 28.62,-24.668 0.09,-1.531 0.21,-3.141 0.34,-4.762 1.41,-19.398 2.95,-44.129 2.58,-56.551" /><path
         id="path350"
         style="fill:#0a3c5f;fill-opacity:1;fill-rule:nonzero;stroke:none"
         d="m 6859.19,687.301 v -0.391 c -0.24,-15.871 -13.16,-28.578 -29.03,-28.558 -16.05,0.027 -29.03,12.988 -29,29.027 0,4.32 0.97,8.461 2.72,12.172 0.79,1.347 1.62,2.781 2.36,4.219 5.28,7.582 14.05,12.589 23.99,12.57 14.53,-0.02 26.55,-10.719 28.62,-24.668 0.21,-1.453 0.34,-2.883 0.34,-4.371" /><path
         id="path352"
         style="fill:#004275;fill-opacity:1;fill-rule:nonzero;stroke:none"
         d="m 6804.63,704.148 c 21.81,-7.648 39.62,-14.296 63.72,-17.238 33.94,232.11 126.85,395.39 60.92,514.39 l -120.69,-8.19 c -4.19,-120.84 -9.02,-307.04 -3.95,-488.962" /><path
         id="path354"
         style="fill:#004275;fill-opacity:1;fill-rule:nonzero;stroke:none"
         d="m 7114.35,1711.59 c -11.8,-78.68 -85.14,-132.91 -163.82,-121.11 -78.68,11.79 -132.91,85.13 -121.12,163.81 11.79,78.68 85.13,132.91 163.81,121.12 78.68,-11.8 132.91,-85.14 121.13,-163.82" /><path
         id="path356"
         style="fill:#004275;fill-opacity:1;fill-rule:nonzero;stroke:none"
         d="m 6828.68,1748.69 c -13.42,-191.44 -18.48,-342.52 -20.06,-552.93 l 108.96,-57.73 c 89.79,142 197.22,464.19 196.77,573.56 l -285.67,37.1" /><path
         id="path358"
         style="fill:#0a3c5f;fill-opacity:1;fill-rule:nonzero;stroke:none"
         d="m 7322.87,627.969 h -109.95 v 2.972 c 0,6.098 4.73,9.989 10.29,12.239 24.52,9.968 28.88,23.961 41.67,53.902 0.62,1.438 1.61,2.777 2.36,4.227 5.27,7.582 14.04,12.601 23.98,12.601 14.51,0 26.55,-10.691 28.64,-24.64 0.09,-1.532 0.22,-3.141 0.35,-4.75 1.44,-19.399 3.01,-44.122 2.66,-56.551" /><path
         id="path360"
         style="fill:#0a3c5f;fill-opacity:1;fill-rule:nonzero;stroke:none"
         d="m 7320.21,684.91 v -0.39 c -0.22,-15.872 -13.12,-28.598 -28.99,-28.598 -16.04,0 -29.04,12.949 -29.04,28.988 0,4.32 0.96,8.461 2.7,12.172 0.78,1.348 1.61,2.777 2.36,4.227 5.27,7.582 14.04,12.601 23.98,12.601 14.51,0 26.55,-10.691 28.64,-24.64 0.22,-1.438 0.35,-2.868 0.35,-4.36" /><path
         id="path362"
         style="fill:#004e97;fill-opacity:1;fill-rule:nonzero;stroke:none"
         d="m 7223.18,1204.9 c 9.09,-28.69 -6.81,-59.31 -35.5,-68.4 -28.71,-9.08 -59.33,6.82 -68.41,35.52 -9.08,28.69 6.82,59.32 35.52,68.4 28.69,9.08 59.31,-6.82 68.39,-35.52" /><path
         id="path364"
         style="fill:#004e97;fill-opacity:1;fill-rule:nonzero;stroke:none"
         d="m 7258.95,703.422 c 16.68,-4.621 41.85,-8.602 65.75,-4.332 -35.66,231.851 5.48,421.76 -92.46,516.16 l -112.97,-43.23 c 31.44,-116.76 81.45,-296.168 139.68,-468.598" /><path
         id="path366"
         style="fill:#004e97;fill-opacity:1;fill-rule:nonzero;stroke:none"
         d="m 7222.38,1207.27 c 10.38,-28.25 -4.1,-59.57 -32.34,-69.96 -28.25,-10.39 -59.57,4.1 -69.96,32.35 -10.39,28.24 4.09,59.57 32.34,69.95 28.25,10.39 59.57,-4.09 69.96,-32.34" /><path
         id="path368"
         style="fill:#004e97;fill-opacity:1;fill-rule:nonzero;stroke:none"
         d="m 7233.28,1760.84 c 15.41,-78.06 -35.38,-153.83 -113.44,-169.23 -78.04,-15.41 -153.81,35.38 -169.21,113.44 -15.42,78.05 35.38,153.82 113.43,169.22 78.05,15.41 153.82,-35.38 169.22,-113.43" /><path
         id="path370"
         style="fill:#004e97;fill-opacity:1;fill-rule:nonzero;stroke:none"
         d="m 6951.83,1699.53 c 51.85,-184.77 97.97,-328.73 167.39,-527.36 l 122.04,-17.66 c 36.7,163.96 29.31,503.5 -7.98,606.33 l -281.45,-61.31" /><path
         id="path372"
         style="fill:#00969e;fill-opacity:1;fill-rule:nonzero;stroke:none"
         d="m 6933.8,2521.48 c -20.68,26.64 -46.61,39.76 -78.64,26.88 -38.04,-15.28 -47.12,-49.42 -38.68,-82.88 52.9,-209.42 121.9,-239.69 156.55,-370.24 6.41,-24.18 38.55,-37.47 74.28,-23.1 23.4,9.4 32.43,35.72 28.21,60.38 -44.28,258.69 -121.82,363.34 -141.72,388.96" /><path
         id="path374"
         style="fill:#6acef0;fill-opacity:1;fill-rule:nonzero;stroke:none"
         d="m 6899.65,2619.69 v 0 c -80.86,-33.85 -119.43,-121.56 -100.51,-209.49 49.79,-227.68 50.04,-461.62 23.28,-687.25 174.51,-71.2 306.95,-90.35 437.4,-34.33 -7.84,260.27 -44.64,539.31 -142.81,814.65 -37.12,103.7 -137.14,149.98 -217.36,116.42" /><path
         id="path376"
         style="fill:#ffffff;fill-opacity:1;fill-rule:nonzero;stroke:none"
         d="m 7068.49,2474.14 c -7.27,-33.73 -40.51,-55.19 -74.25,-47.92 -33.74,7.27 -55.2,40.52 -47.93,74.25 7.27,33.74 40.52,55.2 74.26,47.93 33.74,-7.27 55.19,-40.52 47.92,-74.26" /><path
         id="path378"
         style="fill:#ffffff;fill-opacity:1;fill-rule:nonzero;stroke:none"
         d="m 6969.77,2087.47 c -6.08,-28.21 -33.88,-46.15 -62.08,-40.07 -28.22,6.08 -46.16,33.88 -40.08,62.08 6.08,28.22 33.87,46.15 62.09,40.08 28.21,-6.08 46.15,-33.88 40.07,-62.09" /><path
         id="path380"
         style="fill:#ffffff;fill-opacity:1;fill-rule:nonzero;stroke:none"
         d="m 7070.66,2482.09 c -2.22,33.65 -16.35,59.04 -50.09,66.31 -40.08,8.64 -66.73,-14.56 -78.47,-47.02 -73.45,-203.11 -33.23,-266.84 -77.63,-394.4 -8.22,-23.62 10.96,-52.62 48.61,-60.74 24.65,-5.31 46.86,11.45 57.17,34.23 108.19,239.12 102.55,369.25 100.41,401.62" /><path
         id="path382"
         style="fill:#f7c4a5;fill-opacity:1;fill-rule:nonzero;stroke:none"
         d="m 6590.34,1767.83 c 0,0 -13.88,-17.02 -32.32,-25.05 -18.44,-8.02 57.35,-12.3 32.32,25.05" /><path
         id="path384"
         style="fill:#f7c4a5;fill-opacity:1;fill-rule:nonzero;stroke:none"
         d="m 6601.6,1700.4 c 11.86,2.92 0.22,18.53 5.98,20.38 5.75,1.86 0.67,-11.8 12.15,-9.99 7.42,1.17 2.58,11.38 7.5,12.39 4.92,1.02 0.91,-7.18 9.59,-5.91 8.66,1.27 2.16,13.57 6.82,14.98 4.66,1.4 1.66,-6.55 10.52,-2.75 5.82,2.49 6.38,26.86 1.12,42.37 -5.25,15.53 21.97,6.13 8.07,26.87 -1.34,2 -9.94,21.63 -31.98,0.74 -5.69,-5.38 -45.6,-28.49 -48.8,-38.12 -4.63,-13.91 12.55,-62.55 19.03,-60.96" /><path
         id="path386"
         style="fill:#ffffff;fill-opacity:1;fill-rule:nonzero;stroke:none"
         d="m 6965.5,2073.77 c -13.56,-25.48 -45.2,-35.16 -70.68,-21.6 -25.47,13.54 -35.14,45.18 -21.6,70.66 13.56,25.48 45.2,35.16 70.68,21.6 25.48,-13.54 35.14,-45.18 21.6,-70.66" /><path
         id="path388"
         style="fill:#ffffff;fill-opacity:1;fill-rule:nonzero;stroke:none"
         d="m 6664.5,1778.82 c 144.41,120.41 286.41,273.44 296.35,287.71 17.83,25.65 13.19,55.71 -9.72,73.26 -22.81,17.47 -45.68,23.66 -72.41,-2.75 -77.18,-76.25 -152.51,-200.97 -241.98,-331.23 l 27.76,-26.99" /><path
         id="path390"
         style="fill:#f7b690;fill-opacity:1;fill-rule:nonzero;stroke:none"
         d="m 6971.82,2621.34 c -15.32,19.58 -22.91,58.65 -26.63,87.77 -2.43,18.95 -18.88,32.49 -36.71,29.78 v 0 c -17.83,-2.72 -29.51,-20.55 -26.18,-39.35 5.12,-28.92 9.52,-68.48 0.72,-91.73 4.69,-25.93 92.05,-12.62 88.8,13.53" /><path
         id="path392"
         style="fill:#d43c1e;fill-opacity:1;fill-rule:nonzero;stroke:none"
         d="m 6744.14,2887.3 c 0,0 -7.39,-41.12 14.8,-77.79 l 22.08,88.2 -36.88,-10.41" /><path
         id="path394"
         style="fill:#f7c4a5;fill-opacity:1;fill-rule:nonzero;stroke:none"
         d="m 6747.76,2833.52 c 12.76,-57.65 53.77,-196.72 124.68,-188.29 48.61,5.78 93.82,109.07 85.02,155.37 -8.92,46.92 1.8,126.16 -113.87,114.81 -93.02,-9.13 -102.83,-50.23 -95.83,-81.89" /><path
         id="path396"
         style="fill:#d43c1e;fill-opacity:1;fill-rule:nonzero;stroke:none"
         d="m 6890.73,2991.1 c -80.07,20.01 -144.76,1.08 -144.76,1.08 0,0 32.18,-3.95 44.9,-11.25 0,0 -73.71,-6.01 -132.49,-67.03 0,0 25.81,-7.98 63.18,-10.3 0,0 -12.79,-12.33 -40.28,-16.57 0,0 48.45,-17.63 99.11,-8.12 50.67,9.5 106.31,26.48 119.95,-14.44 4.77,-14.07 -0.24,-28.02 -4.2,-48.21 -5.69,-29.05 14.21,-32.67 14.21,-32.67 -0.83,6.74 -4.77,22.87 8.52,37.48 10.21,11.23 34.22,9.39 36.39,-16.15 2.39,-28.05 -16.4,-38.85 -19.39,-65.09 -3,-26.24 35.66,-29.52 35.66,-29.52 0,0 -12.13,11.79 -9.87,37.88 2.26,26.09 7.48,58.04 13.63,89.09 9.61,48.48 -4.5,133.8 -84.56,153.82" /></g></g></svg>